<?xml version="1.0" encoding="UTF-8"?>
<svg version="1.1" xmlns="http://www.w3.org/2000/svg" width="96" height="96">
<path d="M0 0 C31.68 0 63.36 0 96 0 C96 31.68 96 63.36 96 96 C64.32 96 32.64 96 0 96 C0 64.32 0 32.64 0 0 Z " fill="#FCFCFC" transform="translate(0,0)"/>
<path d="M0 0 C18.48 0 36.96 0 56 0 C55.67 0.99 55.34 1.98 55 3 C54.38253906 3.09796875 53.76507813 3.1959375 53.12890625 3.296875 C45.33213565 4.67347377 36.44538066 6.85198958 31 13 C30.08333333 16.5 30.08333333 16.5 31 20 C35.19077803 23.87646968 39.56864288 24.86116706 45 26 C45.69867188 26.20238281 46.39734375 26.40476562 47.1171875 26.61328125 C49.07852494 27.21824679 49.07852494 27.21824679 51 26 C53.54938804 27.27469402 53.74579613 28.49159226 55 31 C55.495 31.495 55.99 31.99 56.5 32.5 C58.27287281 34.27287281 59.1144669 35.64832483 60 38 C59.609375 40.32421875 59.609375 40.32421875 58.75 42.6875 C58.47671875 43.47511719 58.2034375 44.26273438 57.921875 45.07421875 C57 47 57 47 55 48 C55.33 45.03 55.66 42.06 56 39 C55.34 40.98 54.68 42.96 54 45 C53.34 44.01 52.68 43.02 52 42 C51.90614014 42.58378418 51.81228027 43.16756836 51.71557617 43.76904297 C49.73974738 55.33180768 48.25389666 63.94048176 38.62109375 71.35546875 C36.4515419 72.71669278 34.32555527 73.93298053 32 75 C32 75.66 32 76.32 32 77 C31.319375 76.95875 30.63875 76.9175 29.9375 76.875 C25.5946613 77.05980165 21.73019807 78.44588428 17.609375 79.765625 C12.37200511 81.40431128 7.46752224 82.49374794 2 83 C1.67 84.65 1.34 86.3 1 88 C5.9912721 87.59747806 10.37297914 86.97115425 15.125 85.375 C19.59467014 83.94776888 22.46924442 83.77292036 27 85 C27.66 85.66 28.32 86.32 29 87 C32.09926819 86.67801034 32.09926819 86.67801034 35 86 C34.34 83.69 33.68 81.38 33 79 C36.75376152 80.25125384 37.24073289 81.5652404 39 85 C39 85.66 39 86.32 39 87 C40.175625 86.01 40.175625 86.01 41.375 85 C44 83 44 83 46 83 C46.495 87.95 46.495 87.95 47 93 C48.98 92.01 48.98 92.01 51 91 C52.485 93.475 52.485 93.475 54 96 C36.18 96 18.36 96 0 96 C0 64.32 0 32.64 0 0 Z " fill="#FEFEFE" transform="translate(0,0)"/>
<path d="M0 0 C2.875 0.875 2.875 0.875 4.875 2.875 C4.875 4.195 4.875 5.515 4.875 6.875 C2.565 7.535 0.255 8.195 -2.125 8.875 C-2.125 9.535 -2.125 10.195 -2.125 10.875 C0.515 10.545 3.155 10.215 5.875 9.875 C6.2771875 11.6384375 6.2771875 11.6384375 6.6875 13.4375 C8.2442061 17.83018552 10.54771018 19.11417035 14.5625 21.3125 C15.55636719 21.78558594 16.55023438 22.25867188 17.57421875 22.74609375 C20.15036495 25.1297944 20.30055272 25.58441894 20.4921875 28.9296875 C20.14517026 34.68502398 17.73471893 39.41562333 15.3125 44.5625 C11.25252864 53.76561534 9.8183164 59.89627589 11.875 69.875 C12.24272689 72.53830719 12.55782972 75.20500294 12.875 77.875 C9.77101022 77.96210289 6.66733452 78.01542309 3.5625 78.0625 C2.68142578 78.08763672 1.80035156 78.11277344 0.89257812 78.13867188 C0.04501953 78.14833984 -0.80253906 78.15800781 -1.67578125 78.16796875 C-2.45606689 78.1836792 -3.23635254 78.19938965 -4.0402832 78.21557617 C-6.65635906 77.78819289 -7.5387087 76.96079082 -9.125 74.875 C-9.125 74.215 -9.125 73.555 -9.125 72.875 C-10.775 74.195 -12.425 75.515 -14.125 76.875 C-14.125 72.915 -14.125 68.955 -14.125 64.875 C-15.300625 65.865 -15.300625 65.865 -16.5 66.875 C-19.125 68.875 -19.125 68.875 -21.125 68.875 C-23.105 65.41 -23.105 65.41 -25.125 61.875 C-25.125 62.535 -25.125 63.195 -25.125 63.875 C-25.125 65.195 -25.125 66.515 -25.125 67.875 C-28.125 69.875 -28.125 69.875 -30 69.5625 C-30.70125 69.335625 -31.4025 69.10875 -32.125 68.875 C-33.79000443 68.53346063 -35.45678677 68.20050502 -37.125 67.875 C-37.89070313 67.6584375 -38.65640625 67.441875 -39.4453125 67.21875 C-42.76644141 66.79271597 -44.50807684 67.5579154 -47.5625 68.875 C-51.8362249 70.56138875 -54.59747918 71.34338513 -59.125 69.875 C-59.167721 68.20888095 -59.16563832 66.54117115 -59.125 64.875 C-57.57589526 63.32589526 -55.82265085 63.37973042 -53.6875 63 C-50.0506049 62.31095862 -46.58592658 61.4446355 -43.0625 60.3125 C-39.71534936 59.24605768 -36.69036565 58.67555883 -33.1875 58.4375 C-29.80212463 58.21609901 -29.80212463 58.21609901 -27.3125 55.9375 C-26.920625 55.256875 -26.52875 54.57625 -26.125 53.875 C-24.80190125 53.18824536 -23.46675844 52.52454331 -22.125 51.875 C-15.98339535 47.8205411 -13.24249424 44.09506419 -11.7421875 36.89257812 C-11.49855469 35.49168945 -11.49855469 35.49168945 -11.25 34.0625 C-10.88339915 32.17985189 -10.51127124 30.29826902 -10.1328125 28.41796875 C-9.98473145 27.59321045 -9.83665039 26.76845215 -9.68408203 25.91870117 C-9.125 23.875 -9.125 23.875 -7.125 21.875 C-6.63 23.36 -6.63 23.36 -6.125 24.875 C-5.465 22.565 -4.805 20.255 -4.125 17.875 C-2.75067543 21.69256824 -3.44524961 24.94755329 -4.125 28.875 C-1.67311781 22.51497122 -1.67311781 22.51497122 -1.6875 15.875 C-3.29838989 13.63376189 -4.55372404 12.81780118 -7.125 11.875 C-7.60759861 4.63602088 -7.60759861 4.63602088 -5.5 1.3125 C-3.125 -0.125 -3.125 -0.125 0 0 Z " fill="#040404" transform="translate(60.125,18.125)"/>
<path d="M0 0 C1.09404518 3.33644983 0.89669485 5.7065788 0.1875 9.125 C0.01605469 9.99382813 -0.15539063 10.86265625 -0.33203125 11.7578125 C-1 14 -1 14 -3 16 C-3.495 17.485 -3.495 17.485 -4 19 C-2.02663362 18.8698443 -2.02663362 18.8698443 0 18 C1.07456514 15.85561311 1.07456514 15.85561311 1.625 13.25 C1.86089844 12.35023437 2.09679688 11.45046875 2.33984375 10.5234375 C2.66662109 9.27433594 2.66662109 9.27433594 3 8 C3.63763539 6.32201212 4.28627281 4.64706275 5 3 C5.99 3.33 6.98 3.66 8 4 C8 4.99 8 5.98 8 7 C8.66 7 9.32 7 10 7 C10 9.31 10 11.62 10 14 C8.35 14 6.7 14 5 14 C5 14.66 5 15.32 5 16 C7.64 15.67 10.28 15.34 13 15 C13 14.34 13 13.68 13 13 C13.66 13 14.32 13 15 13 C15.56677765 16.85408804 15.0364642 17.94973853 12.6875 21.1875 C10 24 10 24 7 26 C6.01 26 5.02 26 4 26 C3.34 27.32 2.68 28.64 2 30 C0.68 30 -0.64 30 -2 30 C-1.78472656 30.57234375 -1.56945313 31.1446875 -1.34765625 31.734375 C-0.88580786 34.74417351 -1.74478556 35.77285691 -3.4375 38.25 C-3.91058594 38.95640625 -4.38367187 39.6628125 -4.87109375 40.390625 C-5.24363281 40.92171875 -5.61617187 41.4528125 -6 42 C-5.01 42.495 -5.01 42.495 -4 43 C-1.55871286 48.40768132 0.36061303 54.08567056 1 60 C-0.875 59.75 -0.875 59.75 -3 59 C-4.25 56.9375 -4.25 56.9375 -5 55 C-6.65 56.32 -8.3 57.64 -10 59 C-10 55.04 -10 51.08 -10 47 C-11.175625 47.99 -11.175625 47.99 -12.375 49 C-15 51 -15 51 -17 51 C-18.32 48.69 -19.64 46.38 -21 44 C-21 44.66 -21 45.32 -21 46 C-21 47.32 -21 48.64 -21 50 C-24 52 -24 52 -25.875 51.6875 C-26.57625 51.460625 -27.2775 51.23375 -28 51 C-29.66500443 50.65846063 -31.33178677 50.32550502 -33 50 C-33.76570313 49.7834375 -34.53140625 49.566875 -35.3203125 49.34375 C-38.64144141 48.91771597 -40.38307684 49.6829154 -43.4375 51 C-47.7112249 52.68638875 -50.47247918 53.46838513 -55 52 C-55.042721 50.33388095 -55.04063832 48.66617115 -55 47 C-53.45089526 45.45089526 -51.69765085 45.50473042 -49.5625 45.125 C-45.9256049 44.43595862 -42.46092658 43.5696355 -38.9375 42.4375 C-35.59034936 41.37105768 -32.56536565 40.80055883 -29.0625 40.5625 C-25.67712463 40.34109901 -25.67712463 40.34109901 -23.1875 38.0625 C-22.795625 37.381875 -22.40375 36.70125 -22 36 C-20.67690125 35.31324536 -19.34175844 34.64954331 -18 34 C-11.85839535 29.9455411 -9.11749424 26.22006419 -7.6171875 19.01757812 C-7.45476563 18.08365234 -7.29234375 17.14972656 -7.125 16.1875 C-6.75839915 14.30485189 -6.38627124 12.42326902 -6.0078125 10.54296875 C-5.85973145 9.71821045 -5.71165039 8.89345215 -5.55908203 8.04370117 C-5 6 -5 6 -3 4 C-2.505 5.485 -2.505 5.485 -2 7 C-1.34 4.69 -0.68 2.38 0 0 Z " fill="#5F5F5F" transform="translate(56,36)"/>
<path d="M0 0 C3.75376152 1.25125384 4.24073289 2.5652404 6 6 C6 6.66 6 7.32 6 8 C6.78375 7.34 7.5675 6.68 8.375 6 C11 4 11 4 13 4 C13.495 8.95 13.495 8.95 14 14 C15.32 13.34 16.64 12.68 18 12 C18.99 13.65 19.98 15.3 21 17 C3.18 17 -14.64 17 -33 17 C-33 13.04 -33 9.08 -33 5 C-32.67 6.32 -32.34 7.64 -32 9 C-27.0087279 8.59747806 -22.62702086 7.97115425 -17.875 6.375 C-13.40532986 4.94776888 -10.53075558 4.77292036 -6 6 C-5.34 6.66 -4.68 7.32 -4 8 C-0.90073181 7.67801034 -0.90073181 7.67801034 2 7 C1.34 4.69 0.68 2.38 0 0 Z " fill="#FAFAFA" transform="translate(33,79)"/>
<path d="M0 0 C2.875 0.875 2.875 0.875 4.875 2.875 C4.875 4.195 4.875 5.515 4.875 6.875 C2.565 7.535 0.255 8.195 -2.125 8.875 C-2.125 9.535 -2.125 10.195 -2.125 10.875 C0.515 10.545 3.155 10.215 5.875 9.875 C6.16503906 10.70644531 6.16503906 10.70644531 6.4609375 11.5546875 C6.72132812 12.27914063 6.98171875 13.00359375 7.25 13.75 C7.50523438 14.46929687 7.76046875 15.18859375 8.0234375 15.9296875 C8.81377783 18.05657994 8.81377783 18.05657994 10.875 19.875 C10.5 21.75 10.5 21.75 9.875 23.875 C9.875 25.195 9.875 26.515 9.875 27.875 C11.195 28.205 12.515 28.535 13.875 28.875 C13.30155063 31.74224686 13.0135485 32.7364515 10.875 34.875 C10.875 33.555 10.875 32.235 10.875 30.875 C10.215 30.875 9.555 30.875 8.875 30.875 C8.875 31.535 8.875 32.195 8.875 32.875 C6.235 33.205 3.595 33.535 0.875 33.875 C0.875 33.215 0.875 32.555 0.875 31.875 C2.525 31.875 4.175 31.875 5.875 31.875 C5.875 29.565 5.875 27.255 5.875 24.875 C5.215 24.875 4.555 24.875 3.875 24.875 C3.875 23.885 3.875 22.895 3.875 21.875 C3.215 21.875 2.555 21.875 1.875 21.875 C1.48828125 22.87402344 1.1015625 23.87304688 0.703125 24.90234375 C0.17788917 26.20605411 -0.3481969 27.50942215 -0.875 28.8125 C-1.12765625 29.47185547 -1.3803125 30.13121094 -1.640625 30.81054688 C-3.63190808 35.66429937 -3.63190808 35.66429937 -6.328125 36.81640625 C-6.92109375 36.83574219 -7.5140625 36.85507812 -8.125 36.875 C-7.795 34.565 -7.465 32.255 -7.125 29.875 C-6.135 29.545 -5.145 29.215 -4.125 28.875 C-2.10652044 24.69883539 -0.82769769 20.46061232 -1.6875 15.875 C-3.29838989 13.63376189 -4.55372404 12.81780118 -7.125 11.875 C-7.60759861 4.63602088 -7.60759861 4.63602088 -5.5 1.3125 C-3.125 -0.125 -3.125 -0.125 0 0 Z " fill="#2C2C2C" transform="translate(60.125,18.125)"/>
<path d="M0 0 C3.09588806 0.48099488 3.09588806 0.48099488 5.32421875 0.4375 C5.65421875 -0.2225 5.98421875 -0.8825 6.32421875 -1.5625 C6.32421875 -0.5725 6.32421875 0.4175 6.32421875 1.4375 C0.46384254 2.57458792 -4.71107326 2.22262775 -10.61328125 1.5 C-11.48791016 1.40009766 -12.36253906 1.30019531 -13.26367188 1.19726562 C-15.40196039 0.95188825 -17.53901411 0.69579053 -19.67578125 0.4375 C-19.67578125 0.7675 -19.67578125 1.0975 -19.67578125 1.4375 C-8.78578125 2.4275 -8.78578125 2.4275 2.32421875 3.4375 C2.32421875 3.7675 2.32421875 4.0975 2.32421875 4.4375 C1.40721191 4.42702637 0.49020508 4.41655273 -0.45458984 4.40576172 C-3.90253281 4.37139106 -7.35028999 4.34646206 -10.79833984 4.32763672 C-12.28209329 4.31766569 -13.76582754 4.30408395 -15.24951172 4.28662109 C-26.6151375 4.15633408 -36.87576474 4.04618489 -46.67578125 10.4375 C-46.67578125 11.4275 -46.67578125 12.4175 -46.67578125 13.4375 C-42.38578125 14.7575 -38.09578125 16.0775 -33.67578125 17.4375 C-33.67578125 17.7675 -33.67578125 18.0975 -33.67578125 18.4375 C-39.93443525 18.9701514 -44.1268691 17.25599506 -49.67578125 14.4375 C-49.51078125 13.674375 -49.34578125 12.91125 -49.17578125 12.125 C-48.58432729 9.40153764 -48.58432729 9.40153764 -48.67578125 6.4375 C-49.99578125 6.7675 -51.31578125 7.0975 -52.67578125 7.4375 C-49.90259187 2.68346107 -46.49729729 0.82968177 -41.44140625 -0.83984375 C-27.97954094 -3.42329301 -13.48998814 -1.77969849 0 0 Z " fill="#E7E7E7" transform="translate(85.67578125,4.5625)"/>
<path d="M0 0 C0 1.32 0 2.64 0 4 C0.66 3.67 1.32 3.34 2 3 C2.33 2.01 2.66 1.02 3 0 C4.875 0.3125 4.875 0.3125 7 1 C9 4 9 4 9 8 C6 10 6 10 4.125 9.6875 C3.42375 9.460625 2.7225 9.23375 2 9 C0.33499557 8.65846063 -1.33178677 8.32550502 -3 8 C-3.76570313 7.7834375 -4.53140625 7.566875 -5.3203125 7.34375 C-8.64144141 6.91771597 -10.38307684 7.6829154 -13.4375 9 C-17.7112249 10.68638875 -20.47247918 11.46838513 -25 10 C-25.042721 8.33388095 -25.04063832 6.66617115 -25 5 C-23.45089526 3.45089526 -21.69765085 3.50473042 -19.5625 3.125 C-14.97074708 2.26198762 -10.6419838 1.00563287 -6.2265625 -0.51171875 C-3.76942569 -1.05056454 -2.35700312 -0.80181156 0 0 Z " fill="#2B2B2B" transform="translate(26,78)"/>
<path d="M0 0 C0.66 0 1.32 0 2 0 C2 1.65 2 3.3 2 5 C2.66 5.33 3.32 5.66 4 6 C4.47597366 8.70599842 4.84093629 11.33595404 5.125 14.0625 C5.21136719 14.82111328 5.29773438 15.57972656 5.38671875 16.36132812 C5.59939517 18.23996986 5.80075459 20.11988636 6 22 C2.04 22 -1.92 22 -6 22 C-7.04081529 16.79592353 -6.39688489 14.08858624 -4.6875 9.3125 C-4.46126953 8.63638672 -4.23503906 7.96027344 -4.00195312 7.26367188 C-2.981606 4.30848784 -2.2373196 2.2373196 0 0 Z " fill="#535353" transform="translate(67,74)"/>
<path d="M0 0 C7.71929825 2.28070175 7.71929825 2.28070175 10 5 C11.43359842 11.90467813 8.88565435 17.82933735 6 24 C5.01 23.01 4.02 22.02 3 21 C1.02 21.99 1.02 21.99 -1 23 C-1 22.01 -1 21.02 -1 20 C-1.66 20.33 -2.32 20.66 -3 21 C-1.880462 18.48103951 -0.68018448 16.60265345 1.0625 14.4375 C3.16384349 12.07973981 3.16384349 12.07973981 4 9 C2.68 8.67 1.36 8.34 0 8 C-0.38063221 5.6739143 -0.71269945 3.33944736 -1 1 C-0.67 0.67 -0.34 0.34 0 0 Z " fill="#0B0B0B" transform="translate(70,38)"/>
<path d="M0 0 C0.99 0.99 1.98 1.98 3 3 C2.34 3.66 1.68 4.32 1 5 C1 6.32 1 7.64 1 9 C7.30676165 11.86097559 7.30676165 11.86097559 14 12 C16.33630748 9.60140956 16.33630748 9.60140956 18 7 C19.16952466 10.50857397 18.76017128 12.42719497 18 16 C17.67 16.66 17.34 17.32 17 18 C10.19181267 18 2.51012551 16.37270129 -3.3125 12.75 C-6 10 -6 10 -6.4375 6.1875 C-6.293125 5.135625 -6.14875 4.08375 -6 3 C-4.02 2.01 -2.04 1.02 0 0 Z " fill="#F4F4F4" transform="translate(36,10)"/>
<path d="M0 0 C2.875 0.875 2.875 0.875 4.875 2.875 C4.875 4.195 4.875 5.515 4.875 6.875 C2.565 7.535 0.255 8.195 -2.125 8.875 C-2.125 9.535 -2.125 10.195 -2.125 10.875 C0.515 10.545 3.155 10.215 5.875 9.875 C5.875 11.525 5.875 13.175 5.875 14.875 C2.905 14.38 2.905 14.38 -0.125 13.875 C0.865 15.855 1.855 17.835 2.875 19.875 C1 19.6875 1 19.6875 -1.125 18.875 C-1.80632451 17.21427151 -2.47242127 15.547233 -3.125 13.875 C-5.14235205 12.53089738 -5.14235205 12.53089738 -7.125 11.875 C-7.60759861 4.63602088 -7.60759861 4.63602088 -5.5 1.3125 C-3.125 -0.125 -3.125 -0.125 0 0 Z " fill="#161616" transform="translate(60.125,18.125)"/>
<path d="M0 0 C-0.55350771 3.32104626 -1.14091219 6.16244492 -3 9 C-4.0209375 9.4021875 -4.0209375 9.4021875 -5.0625 9.8125 C-5.701875 10.204375 -6.34125 10.59625 -7 11 C-7.81870185 14.56206661 -7.81870185 14.56206661 -8 18 C-11.875 13.25 -11.875 13.25 -13 11 C-14.97888961 10.27306096 -16.97954558 9.60183749 -19 9 C-19.33 10.32 -19.66 11.64 -20 13 C-20.66 13 -21.32 13 -22 13 C-22 11.35 -22 9.7 -22 8 C-20.8553125 7.87625 -20.8553125 7.87625 -19.6875 7.75 C-16.47626739 6.85384206 -15.70625501 5.78388975 -14 3 C-14 4.66666667 -14 6.33333333 -14 8 C-10.25732302 6.30551328 -7.66573877 4.01843832 -4.68359375 1.2421875 C-3 0 -3 0 0 0 Z " fill="#898989" transform="translate(48,69)"/>
<path d="M0 0 C1.32 0 2.64 0 4 0 C8.40774487 11.52164009 8.40774487 11.52164009 9 17 C7.125 16.75 7.125 16.75 5 16 C3.75 13.9375 3.75 13.9375 3 12 C1.35 13.32 -0.3 14.64 -2 16 C-1.85975781 13.52039864 -1.7130815 11.04147598 -1.5625 8.5625 C-1.52318359 7.85544922 -1.48386719 7.14839844 -1.44335938 6.41992188 C-1.11328125 1.11328125 -1.11328125 1.11328125 0 0 Z " fill="#5A5A5A" transform="translate(48,79)"/>
<path d="M0 0 C0.33 0.66 0.66 1.32 1 2 C-0.375 3.5 -0.375 3.5 -2 5 C-2.66 5 -3.32 5 -4 5 C-3.938125 5.825 -3.87625 6.65 -3.8125 7.5 C-4.00053068 11.0099061 -4.93981348 13.41834495 -6.265625 16.6328125 C-7.70618842 21.27633075 -7.76648507 26.16865655 -8 31 C-8.33 31 -8.66 31 -9 31 C-9 28.03 -9 25.06 -9 22 C-10.98 23.32 -12.96 24.64 -15 26 C-15.3125 22.6875 -15.3125 22.6875 -15 19 C-13.34928604 17.97388051 -11.68029994 16.97691857 -10 16 C-8.6604439 13.38367949 -7.87936982 10.82323995 -7 8 C-7.66 7.67 -8.32 7.34 -9 7 C-8.01 6.67 -7.02 6.34 -6 6 C-6 5.34 -6 4.68 -6 4 C-4.35 3.67 -2.7 3.34 -1 3 C-0.67 2.01 -0.34 1.02 0 0 Z " fill="#787878" transform="translate(55,61)"/>
<path d="M0 0 C0.33 1.32 0.66 2.64 1 4 C1.66 3.67 2.32 3.34 3 3 C3.33 2.01 3.66 1.02 4 0 C5.875 0.3125 5.875 0.3125 8 1 C10 4 10 4 10 8 C7 10 7 10 5.125 9.6875 C4.42375 9.460625 3.7225 9.23375 3 9 C2.154375 8.835 1.30875 8.67 0.4375 8.5 C-2 8 -2 8 -5 7 C-5 5.35 -5 3.7 -5 2 C-4.360625 1.855625 -3.72125 1.71125 -3.0625 1.5625 C-1.02454854 1.18992819 -1.02454854 1.18992819 0 0 Z " fill="#111111" transform="translate(25,78)"/>
<path d="M0 0 C0.99 0.33 1.98 0.66 3 1 C3 1.99 3 2.98 3 4 C3.66 4 4.32 4 5 4 C5 6.31 5 8.62 5 11 C2.69 11.66 0.38 12.32 -2 13 C-2.061875 13.598125 -2.12375 14.19625 -2.1875 14.8125 C-3.3236757 17.87143458 -5.17330142 18.55041099 -8 20 C-8.33 19.01 -8.66 18.02 -9 17 C-8.37351563 16.76925781 -7.74703125 16.53851563 -7.1015625 16.30078125 C-4.3318149 14.58642074 -4.15029471 13.30269018 -3.375 10.1875 C-2.44407414 6.67236465 -1.44965011 3.34534641 0 0 Z " fill="#7E7E7E" transform="translate(61,39)"/>
<path d="M0 0 C1.09404518 3.33644983 0.89669485 5.7065788 0.1875 9.125 C0.01605469 9.99382813 -0.15539063 10.86265625 -0.33203125 11.7578125 C-1 14 -1 14 -3 16 C-3.31092739 18.10618676 -3.31092739 18.10618676 -3.375 20.4375 C-3.74176186 24.74176186 -3.74176186 24.74176186 -6.0625 27.0625 C-7.0215625 27.5265625 -7.0215625 27.5265625 -8 28 C-8.38866045 20.35634448 -7.28903298 13.31860543 -5 6 C-4.34 5.34 -3.68 4.68 -3 4 C-2.67 4.99 -2.34 5.98 -2 7 C-1.34 4.69 -0.68 2.38 0 0 Z " fill="#444444" transform="translate(56,36)"/>
<path d="M0 0 C1.65 0.33 3.3 0.66 5 1 C5 1.99 5 2.98 5 4 C4.01 4.33 3.02 4.66 2 5 C1.67 5.99 1.34 6.98 1 8 C0.34 8 -0.32 8 -1 8 C-1.66 9.32 -2.32 10.64 -3 12 C-4.32 12 -5.64 12 -7 12 C-6.78472656 12.57234375 -6.56945313 13.1446875 -6.34765625 13.734375 C-5.88580786 16.74417351 -6.74478556 17.77285691 -8.4375 20.25 C-8.91058594 20.95640625 -9.38367187 21.6628125 -9.87109375 22.390625 C-10.24363281 22.92171875 -10.61617187 23.4528125 -11 24 C-12.45606519 19.47907032 -11.27032841 16.48351204 -10 12 C-9.36191406 11.88398437 -8.72382812 11.76796875 -8.06640625 11.6484375 C-7.38449219 11.43445313 -6.70257813 11.22046875 -6 11 C-4.89363605 8.60931266 -4.89363605 8.60931266 -4 6 C-3.01979625 4.9805881 -2.02196992 3.97753644 -1 3 C-0.67 2.01 -0.34 1.02 0 0 Z " fill="#6A6A6A" transform="translate(61,54)"/>
<path d="M0 0 C0.66 0 1.32 0 2 0 C2 0.66 2 1.32 2 2 C2.99 2 3.98 2 5 2 C5 2.66 5 3.32 5 4 C6.32 4.33 7.64 4.66 9 5 C8.42655063 7.86724686 8.1385485 8.8614515 6 11 C6 9.68 6 8.36 6 7 C5.34 7 4.68 7 4 7 C4 7.66 4 8.32 4 9 C1.36 9.33 -1.28 9.66 -4 10 C-4 9.34 -4 8.68 -4 8 C-2.35 8 -0.7 8 1 8 C0.67 5.36 0.34 2.72 0 0 Z " fill="#4E4E4E" transform="translate(65,42)"/>
<path d="M0 0 C1.6875 1.4375 1.6875 1.4375 3 4 C2.43349712 7.17685927 1.43589044 10.11063679 0 13 C-0.99 13.495 -0.99 13.495 -2 14 C-1.67 11.03 -1.34 8.06 -1 5 C-1.66 6.98 -2.32 8.96 -3 11 C-3.33 11 -3.66 11 -4 11 C-4.33 7.7 -4.66 4.4 -5 1 C-3.35 0.67 -1.7 0.34 0 0 Z " fill="#A6A6A6" transform="translate(57,34)"/>
<path d="M0 0 C-3.39106733 2.26071155 -6.91514137 3.65268823 -10.6875 5.125 C-11.38939453 5.40214844 -12.09128906 5.67929688 -12.81445312 5.96484375 C-14.54173775 6.64635741 -16.27070737 7.32359772 -18 8 C-18.042721 6.33388095 -18.04063832 4.66617115 -18 3 C-16.38818205 1.38818205 -14.39211181 1.41316298 -12.1875 1 C-8.49689874 0.30733325 -8.49689874 0.30733325 -4.86328125 -0.625 C-3 -1 -3 -1 0 0 Z " fill="#5D5D5D" transform="translate(19,80)"/>
<path d="M0 0 C0.66 0.66 1.32 1.32 2 2 C1.67 2.99 1.34 3.98 1 5 C1.61875 5.0825 2.2375 5.165 2.875 5.25 C5 6 5 6 6.25 7.75 C7.0957901 10.28737029 7.14764761 12.34234296 7 15 C3.125 10.25 3.125 10.25 2 8 C0.02111039 7.27306096 -1.97954558 6.60183749 -4 6 C-4.33 7.32 -4.66 8.64 -5 10 C-5.66 10 -6.32 10 -7 10 C-7 8.35 -7 6.7 -7 5 C-5.824375 4.87625 -5.824375 4.87625 -4.625 4.75 C-1.85250896 4.27193661 -1.85250896 4.27193661 -0.6875 1.9375 C-0.460625 1.298125 -0.23375 0.65875 0 0 Z " fill="#ABABAB" transform="translate(33,72)"/>
<path d="M0 0 C0.99 0 1.98 0 3 0 C3 1.65 3 3.3 3 5 C0.03 4.505 0.03 4.505 -3 4 C-2.01 5.98 -1.02 7.96 0 10 C-1.875 9.8125 -1.875 9.8125 -4 9 C-4.70211894 7.34795544 -5.36971413 5.68076231 -6 4 C-6.99 3.67 -7.98 3.34 -9 3 C-8.67 2.34 -8.34 1.68 -8 1 C-6.865625 1.020625 -5.73125 1.04125 -4.5625 1.0625 C-1.18424326 1.41577477 -1.18424326 1.41577477 0 0 Z " fill="#0E0E0E" transform="translate(63,28)"/>
<path d="M0 0 C-2.97 1.65 -5.94 3.3 -9 5 C-9 5.99 -9 6.98 -9 8 C-4.71 9.32 -0.42 10.64 4 12 C4 12.33 4 12.66 4 13 C-2.258654 13.5326514 -6.45108785 11.81849506 -12 9 C-11.70540991 5.46491897 -11.25118587 4.23796556 -8.625 1.75 C-5.22333185 -0.51777877 -3.95589189 -1.31863063 0 0 Z " fill="#DFDFDF" transform="translate(48,10)"/>
<path d="M0 0 C5.75 1.625 5.75 1.625 8 5 C6.35 5.66 4.7 6.32 3 7 C3.99 7 4.98 7 6 7 C5.67 7.99 5.34 8.98 5 10 C2.525 9.01 2.525 9.01 0 8 C-0.38063221 5.6739143 -0.71269945 3.33944736 -1 1 C-0.67 0.67 -0.34 0.34 0 0 Z " fill="#131313" transform="translate(70,38)"/>
<path d="M0 0 C0.33 0 0.66 0 1 0 C1.24954005 1.43410368 1.47392642 2.87260072 1.6875 4.3125 C1.81511719 5.11300781 1.94273438 5.91351563 2.07421875 6.73828125 C2 9 2 9 0.71875 10.78125 C-1.81324542 12.57666493 -3.9845464 12.20103024 -7 12 C-6.34 10.68 -5.68 9.36 -5 8 C-4.34 8 -3.68 8 -3 8 C-3 7.01 -3 6.02 -3 5 C-2.34 4.67 -1.68 4.34 -1 4 C-0.34786708 1.97536745 -0.34786708 1.97536745 0 0 Z " fill="#484848" transform="translate(69,84)"/>
<path d="M0 0 C1.06675441 3.30003164 0.94594883 5.72971429 0.3125 9.125 C0.09013672 10.42824219 0.09013672 10.42824219 -0.13671875 11.7578125 C-1 14 -1 14 -3.08203125 15.3046875 C-3.71496094 15.53414062 -4.34789062 15.76359375 -5 16 C-5.92470553 11.28400182 -6.22923777 8.32734391 -4 4 C-3.01 5.485 -3.01 5.485 -2 7 C-1.34 4.69 -0.68 2.38 0 0 Z " fill="#7F7F7F" transform="translate(56,36)"/>
<path d="M0 0 C2.47354885 2.47354885 2.79408211 4.60274455 3.1796875 8.0234375 C3 10 3 10 0.5625 12.5 C-0.283125 12.995 -1.12875 13.49 -2 14 C-3.81975482 8.87160006 -1.8599099 4.82315618 0 0 Z " fill="#3E3E3E" transform="translate(63,82)"/>
<path d="M0 0 C0.66 0.66 1.32 1.32 2 2 C1.625 4.125 1.625 4.125 1 6 C-1.64 6.33 -4.28 6.66 -7 7 C-7 5.68 -7 4.36 -7 3 C-3.535 2.505 -3.535 2.505 0 2 C0 1.34 0 0.68 0 0 Z " fill="#6B6B6B" transform="translate(65,23)"/>
<path d="M0 0 C0.66 0 1.32 0 2 0 C2.92017937 7.82152466 2.92017937 7.82152466 0.6640625 10.7109375 C-1 12.0625 -1 12.0625 -4 14 C-4 10.74126195 -3.4187858 9.83757161 -2 7 C-1.30269194 4.6756398 -0.63087848 2.34326294 0 0 Z " fill="#383838" transform="translate(78,43)"/>
<path d="M0 0 C3.68754757 0.49831724 5.60490662 1.10067643 8 4 C6.25 7.875 6.25 7.875 4 9 C2.00039988 9.039992 -0.00047242 9.04346799 -2 9 C1 7 1 7 4 7 C3.43628586 3.73045798 2.50037734 2.17424117 0 0 Z " fill="#E9E9E9" transform="translate(80,24)"/>
<path d="M0 0 C2.96527758 2.4453385 3.55582214 4.44602347 4.1875 8.1875 C4.34605469 9.08855469 4.50460938 9.98960938 4.66796875 10.91796875 C4.83232422 11.94857422 4.83232422 11.94857422 5 13 C3.68 12.67 2.36 12.34 1 12 C0.36605303 7.95858806 -0.12404452 4.0934693 0 0 Z " fill="#323232" transform="translate(52,83)"/>
<path d="M0 0 C1.13643966 3.40931897 0.86747764 4.00335456 -0.4375 7.1875 C-0.72496094 7.90292969 -1.01242188 8.61835937 -1.30859375 9.35546875 C-1.53675781 9.89816406 -1.76492187 10.44085938 -2 11 C-2.99 10.01 -3.98 9.02 -5 8 C-6.98 8.99 -6.98 8.99 -9 10 C-8.375 8.125 -8.375 8.125 -7 6 C-5.989375 5.67 -4.97875 5.34 -3.9375 5 C-2.968125 4.67 -1.99875 4.34 -1 4 C-0.03122943 1.96756452 -0.03122943 1.96756452 0 0 Z " fill="#131313" transform="translate(78,51)"/>
<path d="M0 0 C0.99 0.33 1.98 0.66 3 1 C3 2.32 3 3.64 3 5 C3.33 5.99 3.66 6.98 4 8 C1.92446352 8.5534764 0.15634036 9 -2 9 C-1.41196203 5.97580475 -0.77321882 2.98241547 0 0 Z " fill="#BEBEBE" transform="translate(61,39)"/>
<path d="M0 0 C-0.49230769 5.53846154 -0.49230769 5.53846154 -3.0625 7.875 C-4.0215625 8.431875 -4.0215625 8.431875 -5 9 C-5.1875 5.625 -5.1875 5.625 -5 2 C-2 0 -2 0 0 0 Z " fill="#7C7C7C" transform="translate(45,78)"/>
<path d="M0 0 C2.475 0.495 2.475 0.495 5 1 C5 2.98 5 4.96 5 7 C3.68 7.33 2.36 7.66 1 8 C1.33 6.35 1.66 4.7 2 3 C1.34 3 0.68 3 0 3 C0 2.01 0 1.02 0 0 Z " fill="#EDEDED" transform="translate(90,0)"/>
<path d="M0 0 C1.625 2.5 1.625 2.5 3 5 C0.03 5 -2.94 5 -6 5 C-4.87312259 1.61936778 -3.78825335 0 0 0 Z " fill="#E9E9E9" transform="translate(51,91)"/>
<path d="M0 0 C1.19473224 3.58419673 2.36757871 7.21324574 2 11 C0.01171875 13.7578125 0.01171875 13.7578125 -2 16 C-1.85975781 13.52039864 -1.7130815 11.04147598 -1.5625 8.5625 C-1.52318359 7.85544922 -1.48386719 7.14839844 -1.44335938 6.41992188 C-1.11328125 1.11328125 -1.11328125 1.11328125 0 0 Z " fill="#313131" transform="translate(48,79)"/>
<path d="M0 0 C0.66 0.66 1.32 1.32 2 2 C1.9765625 4.8203125 1.9765625 4.8203125 1.625 8.125 C1.51414062 9.22070312 1.40328125 10.31640625 1.2890625 11.4453125 C1.19367188 12.28835937 1.09828125 13.13140625 1 14 C-0.94566951 10.52452927 -1.07637127 8.87493656 0 5 C-0.66 5 -1.32 5 -2 5 C-1.34 3.35 -0.68 1.7 0 0 Z " fill="#141414" transform="translate(69,69)"/>
<path d="M0 0 C0 2.64 0 5.28 0 8 C-0.99 7.01 -1.98 6.02 -3 5 C-3.99 5.495 -3.99 5.495 -5 6 C-5.66 5.34 -6.32 4.68 -7 4 C-2.25 0 -2.25 0 0 0 Z " fill="#EAEAEA" transform="translate(46,83)"/>
<path d="M0 0 C1.32 0 2.64 0 4 0 C4 0.66 4 1.32 4 2 C4.66 2.33 5.32 2.66 6 3 C2.535 4.485 2.535 4.485 -1 6 C-1.042721 4.33388095 -1.04063832 2.66617115 -1 1 C-0.67 0.67 -0.34 0.34 0 0 Z " fill="#565656" transform="translate(2,82)"/>
<path d="M0 0 C0 3 0 3 -1.53125 4.60546875 C-2.1809375 5.12753906 -2.830625 5.64960937 -3.5 6.1875 C-4.1496875 6.71730469 -4.799375 7.24710937 -5.46875 7.79296875 C-5.9740625 8.19128906 -6.479375 8.58960937 -7 9 C-7.66 7.68 -8.32 6.36 -9 5 C-8.195625 4.71125 -7.39125 4.4225 -6.5625 4.125 C-3.8673532 3.26737432 -3.8673532 3.26737432 -3 1 C-2.01 0.67 -1.02 0.34 0 0 Z " fill="#212121" transform="translate(63,61)"/>
<path d="M0 0 C0.99 0.33 1.98 0.66 3 1 C2.55123384 2.64846769 2.09069512 4.29373455 1.625 5.9375 C1.36976562 6.85402344 1.11453125 7.77054688 0.8515625 8.71484375 C0 11 0 11 -2 12 C-1 3.42857143 -1 3.42857143 0 0 Z " fill="#D3D3D3" transform="translate(57,36)"/>
<path d="M0 0 C2.1991413 4.39828259 2.51855059 7.18550592 3 12 C1.35 12 -0.3 12 -2 12 C-1.34 11.67 -0.68 11.34 0 11 C0 7.37 0 3.74 0 0 Z " fill="#2B2B2B" transform="translate(70,84)"/>
<path d="M0 0 C2.375 0.25 2.375 0.25 5 1 C7.17831524 3.90442032 7.19715281 6.45124947 7 10 C6.401875 9.236875 5.80375 8.47375 5.1875 7.6875 C3.15995888 5.08664741 3.15995888 5.08664741 1.25 3.3125 C0 2 0 2 0 0 Z " fill="#9C9C9C" transform="translate(33,77)"/>
<path d="M0 0 C1.46132217 2.92264434 2.34099246 4.92463146 3 8 C1.35 8.33 -0.3 8.66 -2 9 C-1.34 6.03 -0.68 3.06 0 0 Z " fill="#5A5A5A" transform="translate(50,48)"/>
<path d="M0 0 C0.66 0 1.32 0 2 0 C2 1.98 2 3.96 2 6 C0.35 6.33 -1.3 6.66 -3 7 C-2.25 2.25 -2.25 2.25 0 0 Z " fill="#444444" transform="translate(67,74)"/>
<path d="M0 0 C0.66 0 1.32 0 2 0 C2.33 0.99 2.66 1.98 3 3 C1.68 4.32 0.36 5.64 -1 7 C-1.66 6.67 -2.32 6.34 -3 6 C-2.01 4.02 -1.02 2.04 0 0 Z " fill="#6B6B6B" transform="translate(53,58)"/>
<path d="M0 0 C0.66 0 1.32 0 2 0 C1.67 1.65 1.34 3.3 1 5 C0.34 5 -0.32 5 -1 5 C-1 5.66 -1 6.32 -1 7 C-1.99 7 -2.98 7 -4 7 C-2.79618552 4.50638429 -1.54571278 2.31856917 0 0 Z " fill="#535353" transform="translate(59,53)"/>
<path d="M0 0 C1.60031344 3.20062687 0.03173691 5.72271806 -1 9 C-1.66 8.67 -2.32 8.34 -3 8 C-2.74438677 5.6568787 -2.40729228 3.32156597 -2 1 C-1.34 0.67 -0.68 0.34 0 0 Z " fill="#303030" transform="translate(63,87)"/>
<path d="M0 0 C-0.66 1.65 -1.32 3.3 -2 5 C-3.32 5 -4.64 5 -6 5 C-3.74193548 0 -3.74193548 0 0 0 Z " fill="#F0F0F0" transform="translate(68,91)"/>
<path d="M0 0 C0.33 0.66 0.66 1.32 1 2 C0.00390625 3.9453125 0.00390625 3.9453125 -1.4375 6.125 C-1.91058594 6.84945312 -2.38367187 7.57390625 -2.87109375 8.3203125 C-3.24363281 8.87460938 -3.61617187 9.42890625 -4 10 C-4.65234375 8.203125 -4.65234375 8.203125 -5 6 C-3.63510623 3.66629928 -1.8580962 1.99405446 0 0 Z " fill="#4D4D4D" transform="translate(54,68)"/>
<path d="M0 0 C1.32 0 2.64 0 4 0 C3.25 1.9375 3.25 1.9375 2 4 C-0.125 4.75 -0.125 4.75 -2 5 C-1.125 1.125 -1.125 1.125 0 0 Z " fill="#949494" transform="translate(54,54)"/>
<path d="M0 0 C0.99 0.66 1.98 1.32 3 2 C3 2.66 3 3.32 3 4 C0.36 4.33 -2.28 4.66 -5 5 C-5 4.34 -5 3.68 -5 3 C-3.35 3 -1.7 3 0 3 C0 2.01 0 1.02 0 0 Z " fill="#424242" transform="translate(66,47)"/>
<path d="M0 0 C0.99 0.33 1.98 0.66 3 1 C3 3.31 3 5.62 3 8 C1.68 7.34 0.36 6.68 -1 6 C-0.34 5.67 0.32 5.34 1 5 C0.67 4.67 0.34 4.34 0 4 C-0.33 3.01 -0.66 2.02 -1 1 C-0.67 0.67 -0.34 0.34 0 0 Z " fill="#6E6E6E" transform="translate(63,42)"/>
<path d="M0 0 C3 1 3 1 4.3125 3.375 C4.6528125 4.674375 4.6528125 4.674375 5 6 C4.01 7.485 4.01 7.485 3 9 C2.01 6.03 1.02 3.06 0 0 Z " fill="#DBDBDB" transform="translate(33,79)"/>
<path d="M0 0 C0.33 0.66 0.66 1.32 1 2 C1.66 2 2.32 2 3 2 C3 3.32 3 4.64 3 6 C1.68 6.33 0.36 6.66 -1 7 C-0.67 4.69 -0.34 2.38 0 0 Z " fill="#2B2B2B" transform="translate(53,48)"/>
<path d="M0 0 C1.98 0.495 1.98 0.495 4 1 C3.42655063 3.86724686 3.1385485 4.8614515 1 7 C1 5.68 1 4.36 1 3 C0.34 2.67 -0.32 2.34 -1 2 C-0.67 1.34 -0.34 0.68 0 0 Z " fill="#444444" transform="translate(70,46)"/>
<path d="M0 0 C1.32 0 2.64 0 4 0 C3.67 1.65 3.34 3.3 3 5 C2.01 5 1.02 5 0 5 C0.33 4.34 0.66 3.68 1 3 C0.01 2.67 -0.98 2.34 -2 2 C-1.34 1.34 -0.68 0.68 0 0 Z " fill="#030303" transform="translate(74,43)"/>
<path d="M0 0 C2.475 0.495 2.475 0.495 5 1 C5.33 1.99 5.66 2.98 6 4 C4.35 4 2.7 4 1 4 C0.67 2.68 0.34 1.36 0 0 Z " fill="#969696" transform="translate(60,32)"/>
<path d="M0 0 C1.32 0.33 2.64 0.66 4 1 C3.67 2.65 3.34 4.3 3 6 C3.66 6.33 4.32 6.66 5 7 C4.01 7 3.02 7 2 7 C0.5393715 4.35261084 0 3.10551666 0 0 Z " fill="#D3D3D3" transform="translate(66,29)"/>
<path d="M0 0 C1.98 0 3.96 0 6 0 C4.68 0.33 3.36 0.66 2 1 C2.99 1.66 3.98 2.32 5 3 C3.35 3.33 1.7 3.66 0 4 C0 2.68 0 1.36 0 0 Z " fill="#BCBCBC" transform="translate(58,26)"/>
<path d="M0 0 C0.99 0.33 1.98 0.66 3 1 C-1.75 5.875 -1.75 5.875 -4 7 C-3.67 5.68 -3.34 4.36 -3 3 C-2.01 3 -1.02 3 0 3 C0 2.01 0 1.02 0 0 Z " fill="#565656" transform="translate(66,55)"/>
<path d="M0 0 C0.66 0 1.32 0 2 0 C1.814375 0.928125 1.62875 1.85625 1.4375 2.8125 C0.75876119 6.01343771 0.75876119 6.01343771 2 9 C1.01 8.67 0.02 8.34 -1 8 C-1.04241723 5.66705225 -1.04092937 3.33297433 -1 1 C-0.67 0.67 -0.34 0.34 0 0 Z " fill="#D6D6D6" transform="translate(31,12)"/>
</svg>
